<svg xmlns="http://www.w3.org/2000/svg" viewBox="0 0 106.072 95.234">
  <g fill="#61DAFB">

          <path d="M99.665 20.036c-0.349-0.861-0.842-1.583-0.966-2.484 -1.006-0.281-2.699-0.02-3.027 0.941 4.116 9.05 7.361 27.941 7.156 39.33 0.758 0.119 1.591 0.322 2.475 0.65 0.16 0.059 0.309 0.117 0.449 0.172 0.102 0.025 0.208 0.053 0.32 0.08C106.072 45.297 103.47 32.97 99.665 20.036zM99.274 32.619c-0.472-1.804-0.677-3.406-0.924-3.987 -0.431-2.745-1.931-5.39-2.341-8.095 -0.246-0.831-0.626-1.582-1.006-2.324 -0.74 0.12-1.254 0.761-1.828 1.222 -0.021 0.26 0.096 0.223 0.342 1.024 0.45 0 2.931 9.584 3.539 11.979 0.135 0.969 0.316 2.092 0.537 3.191 0.098 0.178 0.186 0.362 0.262 0.55 -0.334-0.833-0.918-1.602-1.502-2.001 -0.923-0.009-6.361-0.036-6.896 0.052 -8.509 0.097-16.377 1.708-24.564 3.675 0.205-1.403 1.499-2.444 1.869-3.787 1.334-1.783 1.191-3.907 1.314-6.151 -2.383-0.301-1.644-4.007-1.5-5.61 0.369-0.14 0.74-0.26 1.109-0.38 0.041-0.421-0.104-1.283-0.35-5.71 -6.305-1.287-19.135 7.392-21.809 11.201 -0.268 0.2-0.966 1.202-1.541 1.703 -7.43 1.135-14.377 3.803-20.146 8.676 -0.04 0.14-0.082 0.28-0.102 0.42 4.148 0.301 8.522 1.563 11.5 4.467 1.068-0.14 0.794-2.023 1.82-2.684 0 0.281-0.034 0.281-0.979 2.965 -4.169 1.844-11.254 5.029-11.664 10.338 1.129-0.26 2.341-0.58 3.429-1.002 0.042 0.102 0.036 0.088 0.099 0.207 -3.046 1.086-5.244 3.136-6.434 4.609 0.029-0.036 0.054-0.069 0.084-0.105 -1.4-3.219-2.174-6.758-2.174-10.469 0-14.924 12.502-27.027 27.92-27.027 1.909 0 3.771 0.186 5.572 0.539 1.172-0.654 2.748-1.494 4.348-2.248 -3.122-1.013-6.463-1.563-9.937-1.563 -17.26 0-31.257 13.549-31.257 30.256 0 10.447 5.475 19.66 13.796 25.098 -0.052-1.193 0.06-2.795 0.169-3.85 -0.675-0.518-1.324-1.066-1.947-1.64 0.796-0.241 1.564 0.234 0.233-0.923 0-0.102 0.021-0.201 0.041-0.301 0.596-0.121 1.212-0.24 1.828-0.342 0.04-0.1 0.082-0.199 0.123-0.279 -1.273-0.182-2.505-0.781-3.696-0.941 -0.021-0.121-0.34-0.404-0.402-0.424 0-0.119 0.278-0.219 0.298-0.318 1.15-0.32 2.491-0.881 3.491-1.121 0-0.141 0-0.281 0-0.402 -1-0.141-5.257-0.52-5.729-1.602 0.945-0.102 5.033-0.781 5.792-1.764 -0.37-0.18-0.401-0.18-1.099-0.18 -1.561-0.281-3.31-0.902-4.892-1.002 0.021-0.102 0.309-0.379 0.35-0.479 2.17-1.252 5.953-3.402 8.402-3.67 -1.046 4.893-1.754 9.398-1.896 14.365 0.123 4.35 0.114 7.482 0.073 8.523C24.99 83.4 16.542 87.398 8.538 95.234c6.212 0 12.548-5.697 19.821-5.537 0.555-0.52 2.136-2.484 2.978-2.885 0.092 0.896 0.19 1.701 0.309 2.625 2.207 0.717 4.396 1.107 6.584 1.795 2.402 0.756 4.802 1.809 7.217 2.652 -1.9-5.117-4.724-9.236-8.4-13.383 -0.533-1.584 0.678-3.408 1.253-4.869 0.231 0.026 0.451 0.038 0.668 0.047 -0.04-0.001-0.076 0-0.116-0.002 2.695 0.734 5.536 1.127 8.474 1.127 17.26 0 31.257-13.549 31.257-30.256 0-2.638-0.35-5.197-1.005-7.637 6.348-0.852 13.901-1.064 20.279-0.326 0.182-0.286 0.255-0.621 0.269-0.971 -0.003 0.081 0.004 0.165-0.007 0.243 0.037 0.133 0.074 0.264 0.112 0.391 0.874 6.429 1.297 13.08 1.679 19.466 0.514-0.047 1.178-0.068 1.953-0.008 0.02-1.137-0.059-2.273-0.038-3.389C101.821 46.916 100.689 39.911 99.274 32.619zM26.808 66.977c-0.074 0.038 0.102 0.481 0.197 0.663C27.007 67.518 27 67.401 27 67.297c0 0.066 0.033 0.148 0.079 0.238 0.007-0.08 0.011-0.166 0.026-0.238 0.301 0.396 0.791 1.187 1.675 2.635 -0.736-1.206-1.473-1.95-1.702-2.396 -0.005 0.062-0.015 0.116-0.021 0.185 -0.008 0-0.029-0.035-0.054-0.081 0 0.029 0.004 0.051 0.001 0.081C26.966 67.721 26.701 67.017 26.808 66.977zM29.314 50.246C29.811 46.275 42 43.053 46 42.053c0-0.141 0-0.281 0-0.401 -1 0-2.167-0.301-2.927-0.702 0-1.362 2.592-5.77 3.353-6.512 0.762-1.301 2.377-2.958 2.505-4.481 -0.296-0.504-0.125-1.385 0.462-2.173l-0.001-0.018 0.011-0.004c0.023-0.032 0.047-0.063 0.073-0.095 0.466-0.577 1.33-1.318 2.166-1.065l0.026 0.002 0.002 0.008c0.083 0.028 0.16 0.068 0.229 0.121 0.043 0.033 0.082 0.07 0.116 0.11 1.556-0.516 3.196-2.924 4.704-3.746 2.095-2.044 5.031-2.866 7.619-4.067 -0.226-0.401-0.287-0.441-0.678-0.661 1.068-0.361 1.068-0.361 2.013-0.441 0.329 0.902 0.308 2.083 0.144 3.025 -2.341-0.681-8.132 5.57-8.604 6.512 -1.663 0.921-2.998 4.808-4.024 6.551 0.369 0.742 1.148 0.341 1.602-0.101 3.471-1.783 7.207-3.606 11.09-3.947 -0.1 5.154-4.089 8.839-8.729 9.999 -1.428 0.569-4.537 1.093-5.586 2.023 -6.161 2.204-12.635 4.749-18.344 7.934C30.552 50.066 30.115 50.207 29.314 50.246zM35.382 81.002c1.931 2.67 5.644 5.586 6.612 9.191 -0.061 0.041-0.123 0.045-0.185 0.086 -3.36-1.434-5.479-2.088-8.847-2.549 0-0.467 0.025-1.922 0.031-3.756 -0.449 0.273-1.733 1.045-2.065 1.154 -0.335 0.107 1.278-1.23 2.067-1.576 0.019-4.609 0.148-11.436 0.805-12.709 0.144-5.59 2.033-11.781 4.21-16.93 1.52 0.18 2.505 0.98 3.655 1.883 0.585-2.475-4.438-3.947-5.195-5.449 3.326-1.264 6.674-2.782 10.124-3.745C50.065 45.001 53.967 44 57.541 43c0.144 0 0.308 0 0.472 0 3.347 2 6.653 2.882 10.576 1.84 -0.106 0.204-0.035 0.072-0.175 0.289 -2.566 5.008-14.303 7.298-19.047 9.328 -0.578 0-2.246 0.574-2.304 1.121 0.657-0.02 1.051-0.161 3.371-0.28 0.021 0.078 0.042 0.16 0.062 0.26 -2.423 2.363-4.867 4.648-7.188 7.072 -1.561 0.941-2.382 3.326-3.635 4.748C38.894 68.939 33.206 79.389 35.382 81.002zM74.033 54.534c0.018-0.011 0.037-0.021 0.054-0.032 -0.021 0.013-0.035 0.026-0.056 0.039C74.032 54.539 74.032 54.537 74.033 54.534c-0.334 0.206-0.734 0.408-1.234 0.622 -1.376 0-1.746 0.1-3.635 0 -1.376-0.502-2.588-0.762-4.025-0.902 -0.041-0.061-0.062-0.121-0.082-0.18 -2.813 0.461-5.647 1.281-8.543 1.742 -0.205 0.061-0.41 0.141-0.596 0.221 1.027 0.801 3.08 0.201 3.882 0.982 1.564-0.219 3.601-0.541 5.195-0.541 2.978 1.742 4.806 1.783 8.112 1.703 -0.187 0.004-0.367 0.008-0.545 0.012 -0.072 0.146-0.147 0.292-0.222 0.438 -1.423 0.359-2.788 0.61-4.327 0.39 -3.039-0.92-5.627-1.902-8.563 0 -1.849 0.461-3.47 0.883-5.401 1.143 0.062 0.141 0.145 0.281 0.227 0.422 1.807 0.379 3.532 0.561 5.381 0.701 0.678-0.121 2.382-0.121 2.607-0.262 2.178-0.541 2.178-0.541 2.588-0.541 1.664 0.803 3.285 1.184 5.134 1.424 -0.021 0.1-0.041 0.199-0.062 0.32 -2.074 0.541-5.504 1.143-7.393-0.141 -1.561 0-3.061-0.521-4.662-0.26 -1.355 0.52-2.834 1.201-4.312 1.201 -1.314 0.643-2.937 0.361-4.189 1.021 3.019 0.502 6.1 0.562 8.994-0.621 0.781 0.441 1.582 0.883 2.383 1.344 2.126 0.722 4.251 0.528 6.346 0.92 -0.259 0.251-0.524 0.377-0.793 0.619C64.846 66.704 62.807 67 61.854 66c-0.186 0-0.37 0-0.555 0 -2.26-1-5.236-0.884-7.599-0.022 -0.151 0.441-2.802 1.084-3.368 1.26C49.594 66.917 47 67.098 46 67.377c0 0.08 0 0.16 0 0.262C48 67.818 49.941 69 51.996 69c1.334 0 2.67 0 4.024 0 0.801 0 1.745-0.53 2.629-0.491 1.042 0.508 1.974 0.948 3.041 1.28 0.002 0 0.003-0.001 0.005-0.002 0.191 0.061 0.387 0.129 0.589 0.18 -0.207-0.053-0.398-0.117-0.594-0.178 -0.356 0.208-0.717 0.402-1.083 0.593 -1.036 0.089-2.059 0.125-3.149 0.125 -1.602-0.461-3.224-0.863-4.888-1.105 -3.06 0.041-5.952 1.103-8.89 1.904C42.448 71.366 43 71.365 42 71.525c0 0.08 0 0.16 0 0.26 1 0.02 2.81 0.361 3.057 0.602 1.108-0.061 2.309-0.208 3.438-0.249C49.911 71.646 50.769 73 52.122 73c0.001 0 0.002 0 0.003 0 0.084 0 0.147 0.171 0.235 0.2 -0.083-0.027-0.159-0.007-0.238-0.037 -1.562 0.263-3.154 0.429-4.793 0.429 -0.644 0-1.278-0.01-1.91-0.051 -1.827-0.287-3.575-0.803-5.398-0.961 0-2.543 4.128-6.889 5.916-8.971 2.361-1.943 4.498-4.146 6.532-6.391 1.293-1.822 1.293-1.822 1.95-2.443 7.044-1.363 17.025-5.15 17.703-13.124 -2.646 0.976-3.834 1.763-7.036 1.483 -0.76-0.38-1.466-0.761-2.205-1.142 0-0.12 0.021-0.24 0.041-0.34 3.327-0.782 6.457-1.658 9.846-1.918 0.447-0.088 1.044-0.191 1.52-0.239 0.635 2.262 0.974 4.642 0.974 7.098C75.261 49.357 74.831 52.022 74.033 54.534zM80.459 36.843c-0.268 0.12-2.26 0.14-2.465 0.28 -2.588 0.28-5.175 1.182-7.783 1.182 0-0.08 0.062-0.321 0.062-0.381 5.635-0.458 11.436-2.396 17.168-2.544 2.506-0.1 6.016-0.5 8.604 0.041 0.021 0.241 0.227 0.36 0.248 0.601C90.994 35.801 85.736 36.282 80.459 36.843zM94.367 19.936c0.061 0 0.123 0 0.205 0.02 0.76 1.723 2.177 4.929 2.053 6.792C96.092 26.587 94.551 20.977 94.367 19.936zM96.893 27.469c0.062 0.02 0.123 0.04 0.205 0.06 0.186 1.222 0.678 2.444 0.883 3.687 -0.041 0.04-0.082 0.08-0.123 0.14C97.303 30.996 96.77 28.371 96.893 27.469zM98.046 36.782c-0.041-0.169-0.096-0.338-0.159-0.505C97.95 36.444 98.005 36.613 98.046 36.782zM98.08 36.992c0.023 0.131 0.044 0.26 0.05 0.388C98.124 37.252 98.103 37.122 98.08 36.992zM64.755 23.078l-1.25 0.688 0.87 1.568L64.755 23.078zM65.333 28.688l-0.875-0.896 -0.042 1.021L65.333 28.688zM64.104 28.896l-0.646-0.812 -0.167 1.042L64.104 28.896zM63.021 29.229l-0.542-0.625L62.271 29.5 63.021 29.229zM62.083 29.625l-0.354-0.583 -0.333 0.896L62.083 29.625zM61.25 30.062l-0.375-0.458 -0.312 0.771L61.25 30.062zM60.417 30.5l-0.333-0.375 -0.271 0.688L60.417 30.5zM59.625 30.938l-0.312-0.312 -0.271 0.625L59.625 30.938zM58.812 31.375l-0.229-0.292 -0.25 0.562L58.812 31.375zM63.317 23.912l-1.234 0.776 0.938 1.125L63.317 23.912zM61.817 24.912l-1.13 0.838 0.917 0.771L61.817 24.912zM60.458 25.979l-0.917 0.833 0.75 0.583L60.458 25.979zM59.375 27.021l-0.792 0.854 0.667 0.312L59.375 27.021zM58.375 28.146l-0.688 0.75 0.562 0.291L58.375 28.146zM57.479 29.167l-0.542 0.625 0.438 0.333L57.479 29.167zM56.771 30.042l-0.417 0.521 0.354 0.229L56.771 30.042zM56.25 30.792l-0.312 0.438 0.208 0.125L56.25 30.792zM67.225 26.377c0.455 1.293 1.419 1.194 1.521 1.138 0.063-0.036 0.154 1.005 0.098 1.839 1.604 1.873 2.953 3.959 3.992 6.208 0.85-0.188 2.383-0.333 3.445-0.418 -1.875-4.456-4.814-8.382-8.515-11.481 -0.11 0.048-0.227 0.106-0.353 0.176C67.156 23.983 67.099 26.018 67.225 26.377zM50.152 42.035c0.062-0.04 0.164-0.06 0.267-0.08 0.021-0.12 0.042-0.221 0.062-0.32 -0.637-0.321-1.355-0.702-1.622-1.343 -1.622-0.541-1.808-2.484-3.286-3.206C46.455 39.551 47.38 41.374 50.152 42.035zM50.771 40.433C50.895 40.373 51 40.332 51 40.292c0-0.08 0-0.16 0-0.24 -1-0.681-4.109-2.885-4.109-4.428 -0.165-0.06-0.329-0.1-0.473-0.14C46.541 37.627 48.595 40.072 50.771 40.433zM49.906 38.188c0.451 0.16 1.703 0.481 2.012 0.781 0.082-0.04 0.186-0.06 0.288-0.081 -0.124-0.761-1.171-1.262-1.869-1.522 -0.034-0.199-0.684-0.525-1.106-1.069 -0.753-0.969-1.503-2.276-1.871-2.276 0.185 1.542 0.871 2.328 1.592 3.124C49.255 37.48 49.725 37.746 49.906 38.188zM50.057 28.544c0.985-0.221 1.084 0.236 1.971 0.461 0.021-0.581 0.165-1.423-0.184-1.884 -1.15 0-1.24 0.092-2.124 0.833C49.822 28.376 49.811 28.364 50.057 28.544z"></path><path d="M33.9 5.599L30.752 7.31c-0.545-0.914-1.324-1.131-2.336-0.647 -0.414 0.195-0.687 0.43-0.822 0.707 -0.137 0.277-0.146 0.535-0.023 0.772 0.084 0.175 0.258 0.297 0.513 0.368 0.255 0.073 0.78 0.071 1.565-0.003 1.006-0.084 1.84-0.11 2.512-0.08 0.67 0.031 1.287 0.193 1.848 0.484 0.562 0.294 1.011 0.778 1.35 1.451 0.316 0.636 0.43 1.315 0.342 2.036 -0.089 0.721-0.388 1.422-0.896 2.104 -0.507 0.679-1.391 1.32-2.651 1.92 -1.777 0.846-3.203 1.111-4.277 0.8 -1.076-0.311-1.873-0.99-2.395-2.03l-0.125-0.254 3.143-1.762c0.338 0.679 0.732 1.086 1.182 1.222 0.446 0.133 0.942 0.071 1.487-0.189 0.55-0.26 0.91-0.577 1.081-0.947 0.17-0.368 0.183-0.704 0.031-1.001 -0.109-0.223-0.304-0.384-0.582-0.486 -0.278-0.102-0.838-0.107-1.682-0.02 -1.933 0.207-3.236 0.169-3.915-0.11 -0.679-0.28-1.188-0.761-1.53-1.448 -0.312-0.625-0.418-1.281-0.316-1.968 0.099-0.688 0.421-1.335 0.963-1.946s1.289-1.145 2.246-1.6C30.488 3.241 32.637 3.546 33.9 5.599L33.9 5.599z"></path><polygon points="50.552,0 49.192,12.352 45.352,12.744 45.895,7.725 41.749,8.15 41.222,13.168 37.347,13.564 38.706,1.216   42.547,0.82 42.068,5.184 46.207,4.759 46.72,0.393 50.552,0 "></polygon><path d="M62.686 14.882l-3.688-0.764 0.258-1.979 -3.971-0.823 -1.367 1.748 -4.055-0.84 9.466-10.451 4.011 0.832L62.686 14.882 62.686 14.882zM59.563 9.569l0.571-4.403L60.1 5.158l-3.034 3.894L59.563 9.569 59.563 9.569z"></path><polygon points="92.711,26.442 85.717,24.997 81.822,32.519 79.318,29.278 82.213,24.287 78.715,23.541 75.889,24.838   73.557,21.816 85.094,16.579 87.428,19.602 83.106,21.544 83.092,21.598 89.668,22.497 92.711,26.442 "></polygon><path d="M80.01 12.646c-0.096-0.826-0.646-1.583-1.646-2.265l-5.8-3.961 -9.298 8.466 1.299 0.888c1.495-0.124 2.538-0.119 3.212 0.04l2.421-2.214 0.169 0.113c0.266 0.184 0.449 0.407 0.541 0.673 0.094 0.266 0.021 0.953-0.211 2.064 -0.234 1.111-0.473 2.121-0.711 3.028l3.331 2.276c0.747-2.887 0.982-4.801 0.704-5.746 1.197 0.574 2.252 0.741 3.159 0.495 0.907-0.246 1.641-0.758 2.2-1.536C79.896 14.249 80.104 13.474 80.01 12.646zM76.227 13.137c-0.142 0.198-0.361 0.356-0.66 0.473 -0.295 0.116-0.626 0.118-0.986 0.008 -0.359-0.11-1.037-0.506-2.039-1.19l-0.598-0.41 1.893-1.728 1.6 1.091c0.574 0.393 0.896 0.721 0.963 0.981C76.468 12.625 76.41 12.883 76.227 13.137z"></path><polygon points="4.957,68.693 18.127,64.814 20.648,67.547 15.178,72.744 15.2,72.77 23.246,70.361 25.82,73.148 16.791,81.514   14.473,79.002 20.24,74.17 20.237,74.119 12.264,76.607 9.766,73.898 15.354,68.756 15.334,68.73 7.482,71.424 4.957,68.693 "></polygon><polygon points="0,51.816 12.715,51.195 13.715,54.834 8.547,55.098 9.625,59.025 14.787,58.748 15.796,62.418 3.084,63.043   2.084,59.4 6.576,59.18 5.498,55.258 1,55.451 0,51.816 "></polygon><polygon points="0.1,43.486 12.589,45.873 12.658,49.674 0.17,47.287 0.1,43.486 "></polygon><polygon points="3.455,28.658 6.269,29.985 5.289,33.808 13.908,37.947 12.976,41.604 4.353,37.475 3.42,41.131 0.608,39.799   3.455,28.658 "></polygon><polygon points="11.738,16.353 13.637,18.27 10.107,23.379 11.514,24.796 14.918,19.873 16.695,21.7 13.295,26.617 15.023,28.37   18.852,22.831 20.859,24.873 14.883,33.517 6.053,24.578 11.738,16.353 "></polygon><polygon points="87.416,30.215 87.416,27.523 87.809,27.523 87.809,29.757 88.785,29.757 88.785,30.215 87.416,30.215 "></polygon><polygon points="89.302,30.215 89.302,27.96 88.725,27.96 88.725,27.501 90.271,27.501 90.271,27.96 89.695,27.96 89.695,30.215   89.302,30.215 "></polygon><path d="M90.522 27.501h0.718c0.162 0 0.285 0.017 0.369 0.052 0.115 0.047 0.213 0.13 0.294 0.25 0.081 0.119 0.144 0.266 0.187 0.439 0.041 0.174 0.062 0.387 0.062 0.642 0 0.223-0.02 0.416-0.06 0.577 -0.048 0.197-0.118 0.357-0.208 0.479 -0.068 0.092-0.16 0.165-0.275 0.216 -0.087 0.039-0.203 0.058-0.348 0.058h-0.739V27.501L90.522 27.501zM90.915 27.96v1.797h0.293c0.11 0 0.188-0.008 0.237-0.026 0.064-0.022 0.117-0.06 0.158-0.112 0.043-0.053 0.076-0.141 0.104-0.262 0.026-0.122 0.04-0.288 0.04-0.498 0-0.209-0.014-0.37-0.04-0.482 -0.027-0.113-0.064-0.201-0.111-0.263 -0.048-0.063-0.109-0.105-0.182-0.127 -0.055-0.018-0.162-0.026-0.322-0.026H90.915L90.915 27.96zM49.079 90.744l-1.212 0.074c-0.318-0.855-0.564-1.801-0.734-2.842 -0.173-1.039-0.3-2.498-0.384-4.373l-0.066-1.469 -0.095-2.078 1.27-0.078 0.119 2.598c0.086 1.895 0.17 3.344 0.257 4.342 0.084 1.002 0.187 1.852 0.308 2.559 0.061-0.734 0.088-1.602 0.081-2.607 -0.005-1.008-0.05-2.449-0.134-4.324l-0.119-2.596 1.271-0.08 0.118 2.6c0.086 1.898 0.171 3.348 0.257 4.346 0.084 0.996 0.188 1.848 0.313 2.553 0.062-0.732 0.089-1.602 0.082-2.607 -0.005-1.008-0.05-2.449-0.134-4.322l-0.119-2.6 1.251-0.074 0.152 3.354c0.086 1.938 0.093 3.445 0.019 4.521 -0.078 1.08-0.234 2.074-0.473 2.982l-1.21 0.074c-0.099-0.293-0.187-0.568-0.267-0.824 -0.076-0.256-0.147-0.508-0.213-0.75 -0.053 0.287-0.109 0.564-0.166 0.834S49.138 90.486 49.079 90.744L49.079 90.744z"></path><polygon points="54.484,90.486 52.868,79.83 54.146,79.568 55.763,90.225 54.484,90.486 "></polygon><path d="M55.658 79.291l1.039-0.277c0.181 0.232 0.365 0.484 0.552 0.756s0.378 0.564 0.573 0.879l-0.419-1.824 1.218-0.328 2.097 10.543L59.5 89.367l-0.826-4.152c-0.238-1.201-0.454-2.053-0.647-2.555 -0.193-0.5-0.432-0.93-0.718-1.287 0.079 0.305 0.156 0.625 0.231 0.957 0.075 0.334 0.149 0.688 0.225 1.062l1.214 6.113 -1.225 0.328L55.658 79.291 55.658 79.291zM59.562 78.291l1.378-0.553c0.585-0.234 1.028-0.248 1.33-0.043 0.305 0.207 0.575 0.713 0.813 1.516l1.796 6.064c0.239 0.805 0.294 1.396 0.164 1.777 -0.13 0.377-0.486 0.684-1.071 0.92l-1.377 0.551L59.562 78.291 59.562 78.291zM63.654 85.701l-1.764-5.945c-0.115-0.396-0.221-0.631-0.312-0.711 -0.091-0.076-0.223-0.08-0.396-0.012l-0.063 0.025 2.296 7.746 0.064-0.025c0.17-0.07 0.271-0.168 0.304-0.295C63.814 86.357 63.771 86.098 63.654 85.701L63.654 85.701zM67.676 84.367c0.119 0.328 0.212 0.525 0.277 0.592 0.064 0.066 0.139 0.076 0.226 0.035 0.089-0.047 0.136-0.117 0.144-0.215 0.004-0.098-0.055-0.312-0.176-0.645l-2.303-6.305c-0.12-0.326-0.213-0.521-0.277-0.588 -0.066-0.066-0.143-0.08-0.232-0.035 -0.086 0.043-0.131 0.113-0.136 0.215 -0.005 0.1 0.055 0.314 0.175 0.641L67.676 84.367 67.676 84.367zM64.38 79.209c-0.345-0.945-0.476-1.652-0.394-2.123 0.084-0.471 0.387-0.832 0.905-1.088 0.522-0.26 0.959-0.26 1.31-0.002 0.348 0.256 0.695 0.857 1.041 1.801l1.906 5.221c0.344 0.939 0.474 1.645 0.39 2.113 -0.085 0.467-0.39 0.828-0.911 1.088 -0.523 0.258-0.957 0.262-1.303 0.008s-0.691-0.85-1.037-1.797L64.38 79.209 64.38 79.209zM73.373 83.4l-1.06 0.684c-0.609-0.604-1.187-1.33-1.732-2.178 -0.548-0.852-1.212-2.096-1.995-3.734l-0.614-1.287 -0.868-1.822 1.111-0.715 1.086 2.273c0.791 1.66 1.414 2.918 1.869 3.773 0.452 0.854 0.866 1.568 1.241 2.141 -0.22-0.689-0.522-1.484-0.909-2.385 -0.385-0.904-0.969-2.178-1.75-3.816l-1.087-2.275 1.112-0.715 1.086 2.271c0.793 1.666 1.416 2.924 1.869 3.777 0.451 0.852 0.868 1.562 1.248 2.133 -0.224-0.689-0.525-1.484-0.912-2.385 -0.385-0.902-0.969-2.176-1.75-3.816l-1.087-2.273 1.096-0.705 1.402 2.936c0.81 1.697 1.382 3.049 1.721 4.055 0.339 1.01 0.573 1.984 0.7 2.922l-1.062 0.68c-0.198-0.213-0.38-0.414-0.548-0.604 -0.166-0.191-0.324-0.381-0.475-0.566 0.061 0.287 0.115 0.564 0.168 0.836C73.284 82.873 73.33 83.139 73.373 83.4L73.373 83.4zM76.88 70.516l0.468 0.623 -0.979 0.99 -0.81-1.08c-0.199-0.27-0.341-0.422-0.42-0.463 -0.08-0.039-0.154-0.021-0.23 0.053 -0.07 0.072-0.092 0.154-0.07 0.252 0.023 0.098 0.135 0.279 0.335 0.549l3.866 5.166c0.201 0.27 0.342 0.422 0.421 0.463 0.079 0.039 0.152 0.023 0.224-0.049 0.074-0.074 0.1-0.158 0.078-0.254 -0.02-0.094-0.133-0.279-0.336-0.551l-1.171-1.564 0.979-0.99 0.848 1.133c0.576 0.771 0.885 1.393 0.93 1.867 0.044 0.477-0.149 0.93-0.576 1.363 -0.43 0.434-0.842 0.592-1.237 0.475 -0.396-0.115-0.884-0.562-1.462-1.336l-3.203-4.277c-0.579-0.777-0.891-1.402-0.936-1.879 -0.046-0.477 0.143-0.932 0.568-1.359 0.43-0.434 0.843-0.592 1.242-0.473C75.809 69.293 76.3 69.738 76.88 70.516L76.88 70.516z"></path><polygon points="82.822,75.355 76.122,67.84 77.025,66.754 82.91,73.357 83.761,72.332 84.574,73.246 82.822,75.355 "></polygon><polygon points="85.581,71.836 78.141,65.324 79.669,62.971 80.574,63.762 79.803,64.947 81.662,66.574 82.393,65.451   83.297,66.242 82.567,67.367 85.434,69.877 86.204,68.691 87.109,69.482 85.581,71.836 "></polygon><path d="M88.951 66.158l-1.515-1.1 -0.272 0.508 1.514 1.098 -0.674 1.252 -1.524-1.105c-1.546-1.123-2.794-2.115-3.741-2.977 -0.946-0.861-1.686-1.672-2.213-2.434l0.771-1.434c0.827 0.223 1.789 0.643 2.882 1.256 1.094 0.615 2.401 1.473 3.919 2.576l1.525 1.107L88.951 66.158 88.951 66.158zM82.225 61.631c0.418 0.426 0.932 0.893 1.543 1.4 0.609 0.506 1.416 1.127 2.424 1.863l0.299-0.559c-1.134-0.801-2.006-1.393-2.616-1.775C83.266 62.176 82.715 61.867 82.225 61.631L82.225 61.631zM81.826 58.68l0.418-1.143c0.269-0.033 0.553-0.061 0.851-0.074 0.3-0.016 0.616-0.02 0.948-0.02l-1.517-0.68 0.489-1.338 8.574 4.227 -0.488 1.34 -3.379-1.666c-0.975-0.48-1.695-0.779-2.157-0.893 -0.464-0.113-0.902-0.141-1.318-0.086 0.259 0.107 0.527 0.223 0.803 0.348 0.274 0.123 0.565 0.26 0.872 0.414l4.973 2.451L90.4 62.906 81.826 58.68 81.826 58.68z"></path><polygon points="92.21,57.469 83.213,54.666 83.549,53.209 92.547,56.012 92.21,57.469 "></polygon><path d="M83.749 52.525l0.13-1.229c0.25-0.121 0.518-0.234 0.803-0.346 0.283-0.107 0.586-0.217 0.904-0.322l-1.619-0.166 0.152-1.445 9.246 1.318 -0.152 1.445L89.57 51.26c-1.053-0.15-1.813-0.205-2.287-0.166 -0.471 0.039-0.9 0.152-1.285 0.342 0.274 0.018 0.559 0.043 0.854 0.076 0.293 0.031 0.605 0.07 0.938 0.115l5.359 0.766 -0.154 1.451L83.749 52.525 83.749 52.525zM86.807 44.879l0.068 1.506 -1.012 0.061c-0.307 0.02-0.498 0.053-0.572 0.102 -0.075 0.049-0.111 0.131-0.105 0.245 0.005 0.108 0.045 0.183 0.125 0.222 0.08 0.037 0.273 0.047 0.58 0.029l5.885-0.357c0.308-0.021 0.498-0.053 0.573-0.103 0.075-0.048 0.111-0.127 0.106-0.235 -0.006-0.113-0.047-0.189-0.125-0.229 -0.076-0.041-0.27-0.051-0.581-0.029l-3.013 0.182 0.014 0.333 -1.13 0.068 -0.081-1.838 5.857-0.356 0.035 0.755 -0.4 0.172c0.182 0.081 0.322 0.222 0.423 0.42 0.103 0.198 0.156 0.44 0.17 0.731 0.024 0.561-0.118 0.964-0.428 1.209 -0.311 0.248-0.927 0.4-1.843 0.455l-4.877 0.295c-0.882 0.057-1.498-0.045-1.85-0.297 -0.353-0.252-0.541-0.705-0.571-1.358 -0.029-0.66 0.118-1.136 0.446-1.429 0.324-0.296 0.93-0.467 1.811-0.523L86.807 44.879 86.807 44.879z" />
        <circle cx="420.9" cy="296.5" r="45.7"/>
        <path d="M520.5 78.1z"/>
    </g>
</svg>
